<mxfile host="app.diagrams.net" modified="2024-03-09T02:39:09.608Z" agent="Mozilla/5.0 (Windows NT 10.0; Win64; x64) AppleWebKit/537.36 (KHTML, like Gecko) Chrome/122.0.0.0 Safari/537.36" version="24.0.3" etag="jyK8dykiDd7LjEYMu5zu" type="github">
  <diagram name="PÃ¡gina-1" id="eVipjEZlm8YCgRWDl3g5">
    <mxGraphModel>
      <root>
        <mxCell id="0" />
        <mxCell id="1" parent="0" />
      </root>
    </mxGraphModel>
  </diagram>
</mxfile>
